<svg xmlns="http://www.w3.org/2000/svg">
	<symbol id="card_bitcoin" viewBox="0 0 4091.27 4091.73">
		<path fill="#F7931A" fill-rule="nonzero" d="M4030.06 2540.77c-273.24,1096.01 -1383.32,1763.02 -2479.46,1489.71 -1095.68,-273.24 -1762.69,-1383.39 -1489.33,-2479.31 273.12,-1096.13 1383.2,-1763.19 2479,-1489.95 1096.06,273.24 1763.03,1383.51 1489.76,2479.57l0.02 -0.02z"/>
		<path fill="white" fill-rule="nonzero" d="M2947.77 1754.38c40.72,-272.26 -166.56,-418.61 -450,-516.24l91.95 -368.8 -224.5 -55.94 -89.51 359.09c-59.02,-14.72 -119.63,-28.59 -179.87,-42.34l90.16 -361.46 -224.36 -55.94 -92 368.68c-48.84,-11.12 -96.81,-22.11 -143.35,-33.69l0.26 -1.16 -309.59 -77.31 -59.72 239.78c0,0 166.56,38.18 163.05,40.53 90.91,22.69 107.35,82.87 104.62,130.57l-104.74 420.15c6.26,1.59 14.38,3.89 23.34,7.49 -7.49,-1.86 -15.46,-3.89 -23.73,-5.87l-146.81 588.57c-11.11,27.62 -39.31,69.07 -102.87,53.33 2.25,3.26 -163.17,-40.72 -163.17,-40.72l-111.46 256.98 292.15 72.83c54.35,13.63 107.61,27.89 160.06,41.3l-92.9 373.03 224.24 55.94 92 -369.07c61.26,16.63 120.71,31.97 178.91,46.43l-91.69 367.33 224.51 55.94 92.89 -372.33c382.82,72.45 670.67,43.24 791.83,-303.02 97.63,-278.78 -4.86,-439.58 -206.26,-544.44 146.69,-33.83 257.18,-130.31 286.64,-329.61l-0.07 -0.05zm-512.93 719.26c-69.38,278.78 -538.76,128.08 -690.94,90.29l123.28 -494.2c152.17,37.99 640.17,113.17 567.67,403.91zm69.43 -723.3c-63.29,253.58 -453.96,124.75 -580.69,93.16l111.77 -448.21c126.73,31.59 534.85,90.55 468.94,355.05l-0.02 0z"/>
	</symbol>

	<symbol id="card_ethereum" viewBox="0 0 784.37 1277.39">
		<polygon fill="#343434" fill-rule="nonzero" points="392.07,0 383.5,29.11 383.5,873.74 392.07,882.29 784.13,650.54 "/>
		<polygon fill="#8C8C8C" fill-rule="nonzero" points="392.07,0 -0,650.54 392.07,882.29 392.07,472.33 "/>
		<polygon fill="#3C3C3B" fill-rule="nonzero" points="392.07,956.52 387.24,962.41 387.24,1263.28 392.07,1277.38 784.37,724.89 "/>
		<polygon fill="#8C8C8C" fill-rule="nonzero" points="392.07,1277.38 392.07,956.52 -0,724.89 "/>
		<polygon fill="#141414" fill-rule="nonzero" points="392.07,882.29 784.13,650.54 392.07,472.33 "/>
		<polygon fill="#393939" fill-rule="nonzero" points="0,650.54 392.07,882.29 392.07,472.33 "/>
	</symbol>

	<symbol id="card_cosmos" viewBox="0 0 2500 2500">
		<circle cx="1250" cy="1250" r="1250" style="fill:#2e3148"/><circle cx="1250" cy="1250" r="725.31" style="fill:#1b1e36"/><path d="M1252.57,159.47c-134.93,0-244.34,489.4-244.34,1093.11s109.41,1093.11,244.34,1093.11,244.34-489.4,244.34-1093.11S1387.5,159.47,1252.57,159.47ZM1269.44,2284c-15.43,20.58-30.86,5.14-30.86,5.14-62.14-72-93.21-205.76-93.21-205.76-108.69-349.79-82.82-1100.82-82.82-1100.82,51.08-596.24,144-737.09,175.62-768.36a19.29,19.29,0,0,1,24.74-2c45.88,32.51,84.36,168.47,84.36,168.47,113.63,421.81,103.34,817.9,103.34,817.9,10.29,344.65-56.94,730.45-56.94,730.45C1341.92,2222.22,1269.44,2284,1269.44,2284Z" style="fill:#6f7390"/><path d="M2200.72,708.59c-67.18-117.08-546.09,31.58-1070,332s-893.47,638.89-826.34,755.92,546.09-31.58,1070-332,893.47-638.89,826.34-755.92h0ZM366.36,1780.45c-25.72-3.24-19.91-24.38-19.91-24.38C378,1666.36,478.4,1572.84,478.4,1572.84c249.43-268.36,913.79-619.65,913.79-619.65,542.54-252.42,711.06-241.77,753.81-230a19.29,19.29,0,0,1,14,20.58c-5.14,56-104.17,157-104.17,157C1746.71,1209.36,1398,1397.58,1398,1397.58c-293.83,180.5-661.93,314.09-661.93,314.09-280.09,100.93-369.7,68.78-369.7,68.78h0Z" style="fill:#6f7390"/><path d="M2198.35,1800.41c67.7-116.77-300.93-456.79-823-759.47S374.43,587.76,306.79,704.73s300.93,456.79,823.3,759.47S2130.71,1917.39,2198.35,1800.41ZM351.65,749.85c-10-23.71,11.11-29.42,11.11-29.42C456.22,702.78,587.5,743,587.5,743c357.15,81.33,994,480.25,994,480.25,490.33,343.11,565.53,494.24,576.8,537.14a19.29,19.29,0,0,1-10.7,22.43c-51.13,23.41-188.07-11.47-188.07-11.47-422.07-113.17-759.62-320.52-759.62-320.52-303.29-163.58-603.19-415.28-603.19-415.28-227.88-191.87-245-285.44-245-285.44Z" style="fill:#6f7390"/><circle cx="1250" cy="1250" r="128.6" style="fill:#b7b9c8"/><ellipse cx="1777.26" cy="756.17" rx="74.59" ry="77.16" style="fill:#b7b9c8"/><ellipse cx="552.98" cy="1018.52" rx="74.59" ry="77.16" style="fill:#b7b9c8"/><ellipse cx="1098.25" cy="1965.02" rx="74.59" ry="77.16" style="fill:#b7b9c8"/>
	</symbol>

	<symbol id="card_terra" viewBox="0 0 2000 2000">
		<circle class="st0" style="fill:#172852;" cx="1000" cy="1000" r="1000"/>
		<g>
			<path class="st1" style="fill:#FFD83D;" d="M805.5,446.9c117.1-43.8,248.9-43.9,368.2-7.9c155.3,48.2,286.4,165.4,354.9,312.5   c18.9,41.9,37,85.6,38.8,132.2c-87.3-50.6-183-83.4-278.9-113.3c-153.4-55.3-314-93.7-459.2-169.7c-33.8-20.2-76.9-40.9-86.1-83   C739.5,481.3,778,461,805.5,446.9"/>
			<path class="st1" style="fill:#FFD83D;" d="M452,800.9c33.9-92,89.5-177.4,165-240.7c19.2,157.9,86.4,310.5,197.4,425.3   c133.1,138.3,322.7,223.2,515.6,220c76.6,2.4,151.5-15.3,226.2-29.6c-73.5,265.6-364.6,441.9-634.3,399.5   c-162.8-20.8-313.1-117.2-403.8-253.3C415.8,1171.7,390,972,452,800.9z"/>
		</g>
		<path class="st2" style="fill:#FF6F03;" d="M1288.5,770.4c95.9,29.9,191.6,62.7,278.9,113.3l5.9,3.1c8.1,60.9,14,123,3.2,184  c-43.9-18.6-79.5-51.3-116.7-80.2C1388.2,931,1315.1,862.8,1288.5,770.4"/>
	</symbol>

	<symbol id="reload" viewBox="0 0 24 24">
 		<path fill="currentColor" d="M2 12C2 16.97 6.03 21 11 21C13.39 21 15.68 20.06 17.4 18.4L15.9 16.9C14.63 18.25 12.86 19 11 19C4.76 19 1.64 11.46 6.05 7.05C10.46 2.64 18 5.77 18 12H15L19 16H19.1L23 12H20C20 7.03 15.97 3 11 3C6.03 3 2 7.03 2 12Z" />
	</symbol>
</svg>